<svg xmlns="http://www.w3.org/2000/svg" version="1.1" xmlns:xlink="http://www.w3.org/1999/xlink" width="512" height="512" x="0" y="0" viewBox="0 0 512 512" style="enable-background:new 0 0 512 512" xml:space="preserve" class=""><g><path fill="#2740b1" d="M501 245c0 106.852-68.403 197.728-163.809 231.226-.9.316-1.803-5.604-2.707-5.299a241.672 241.672 0 0 1-5.463 1.774V164.2H47.149a243.77 243.77 0 0 1 16.362-36.767c1.373-2.505-19.725-4.983-18.268-7.433a246.23 246.23 0 0 1 53.991-63.288c2.085-1.737 13.304 5.252 15.447 3.583A244.522 244.522 0 0 1 181 23.511c3.725-1.361-1.615-11.328 2.192-12.511C206.193 3.851 230.647 0 256 0c135.31 0 245 109.69 245 245z" opacity="1" data-original="#2740b1" class=""></path><path fill="#d9e7ec" d="M274.894 152h57.298a5 5 0 0 1 5 5v319.226a243.804 243.804 0 0 1-62.298 13.056z" opacity="1" data-original="#d9e7ec"></path><path fill="#fff5f5" d="M281 125v363.74a248.386 248.386 0 0 1-28.107 1.241C118.415 488.314 11 379.488 11 244.999 11 199.338 23.491 156.596 45.243 120H276a5 5 0 0 1 5 5z" opacity="1" data-original="#fff5f5" class=""></path><path fill="#ffd98f" d="M394.458 50.961a28.595 28.595 0 0 0-7.394 19.188 4.809 4.809 0 0 0 4.809 4.809h-27.574a4.809 4.809 0 0 1-4.809-4.809c0-7.091 2.635-13.93 7.394-19.188L394.905 20l13.787 15.234z" opacity="1" data-original="#ffd98f"></path><path fill="#ffe7bf" d="M384.318 70.149c0-7.092 2.635-13.93 7.394-19.188l15.607-17.244 15.607 17.244a28.593 28.593 0 0 1 7.394 19.188 4.81 4.81 0 0 1-4.807 4.809h-36.386a4.809 4.809 0 0 1-4.809-4.809z" opacity="1" data-original="#ffe7bf"></path><path fill="#465a61" d="M413.006 40h-36.202l18.101-40z" opacity="1" data-original="#465a61"></path><path fill="#ff4fb8" d="M407.318 348.617V370c0 5.523-4.477 10-10 10H369.49c-5.523 0-10-4.477-10-10v-21.383c0-5.523 4.477-10 10-10h27.828c5.523 0 10 4.477 10 10z" opacity="1" data-original="#ff4fb8" class=""></path><path fill="#ff73c6" d="M430.32 348.617V370c0 5.523-4.477 10-10 10h-26.002c-5.523 0-10-4.477-10-10v-21.383c0-5.523 4.477-10 10-10h26.002c5.523 0 10 4.477 10 10z" opacity="1" data-original="#ff73c6" class=""></path><path fill="#ffc143" d="M430.321 350h-46.448a2.872 2.872 0 0 1-2.872-2.872V72.425A2.425 2.425 0 0 1 383.426 70h46.895z" opacity="1" data-original="#ffc143"></path><path fill="#ffb509" d="M384.318 350h-24.83V70h24.83z" opacity="1" data-original="#ffb509"></path><path fill="#7a8c98" d="M231 162.5H81a7.499 7.499 0 0 0-7.5 7.5v150c0 4.143 3.357 7.5 7.5 7.5h150c4.143 0 7.5-3.357 7.5-7.5V170c0-4.143-3.357-7.5-7.5-7.5zm-7.5 150h-135v-135h135z" opacity="1" data-original="#7a8c98" class=""></path><path fill="#ff73c6" d="M111 212.5c-42.733 0-77.5 34.767-77.5 77.5s34.767 77.5 77.5 77.5 77.5-34.767 77.5-77.5-34.767-77.5-77.5-77.5zm0 140c-34.463 0-62.5-28.037-62.5-62.5s28.037-62.5 62.5-62.5 62.5 28.037 62.5 62.5-28.037 62.5-62.5 62.5z" opacity="1" data-original="#ff73c6" class=""></path><path fill="#00c1fb" d="M149 507V365a5 5 0 0 1 5-5h32a5 5 0 0 1 5 5v142a5 5 0 0 1-5 5h-32a5 5 0 0 1-5-5z" opacity="1" data-original="#00c1fb"></path><path fill="#00d1fc" d="M174.369 507V365a5 5 0 0 1 5-5H296a5 5 0 0 1 5 5v142a5 5 0 0 1-5 5H179.369a5 5 0 0 1-5-5z" opacity="1" data-original="#00d1fc"></path><path fill="#9ae7fd" d="M194.369 476c0 5.523-4.477 10-10 10s-10-4.477-10-10 4.477-10 10-10 10 4.477 10 10zm-10-50c-5.523 0-10 4.477-10 10s4.477 10 10 10 10-4.477 10-10-4.477-10-10-10zm0-40c-5.523 0-10 4.477-10 10s4.477 10 10 10 10-4.477 10-10-4.477-10-10-10zm34.404 20H271c5.523 0 10-4.477 10-10s-4.477-10-10-10h-52.227c-5.523 0-10 4.477-10 10s4.477 10 10 10zM271 426h-52.227c-5.523 0-10 4.477-10 10s4.477 10 10 10H271c5.523 0 10-4.477 10-10s-4.477-10-10-10zm-25 40h-27.227c-5.523 0-10 4.477-10 10s4.477 10 10 10H246c5.523 0 10-4.477 10-10s-4.477-10-10-10z" opacity="1" data-original="#9ae7fd"></path><path fill="#fff5f5" d="M201 75V35c0-8.284 6.716-15 15-15h20c8.284 0 15 6.716 15 15v40c0 8.284-6.716 15-15 15h-20c-8.284 0-15-6.716-15-15z" opacity="1" data-original="#fff5f5" class=""></path><path fill="#ff73c6" d="M99.234 56.712c24.42-20.354 52.862-36.047 83.958-45.712H216a5 5 0 0 1 5 5v78a5 5 0 0 1-5 5H104.234a5 5 0 0 1-5-5z" opacity="1" data-original="#ff73c6" class=""></path><path fill="#ff4fb8" d="M221 63v31a5 5 0 0 1-5 5H104.234a5 5 0 0 1-5-5V63a5 5 0 0 0 5 5H216a5 5 0 0 0 5-5z" opacity="1" data-original="#ff4fb8" class=""></path></g></svg>